<svg width="205" height="40" viewBox="0 0 205 40" fill="none" xmlns="http://www.w3.org/2000/svg">
<path d="M76.7011 10.2119C70.9232 10.2119 66.2218 14.7943 66.2218 20.4276C66.2218 26.0609 70.9232 30.7393 76.7011 30.7393C82.4791 30.7393 87.1485 26.1133 87.1485 20.4276C87.1485 14.7418 82.4612 10.2119 76.7011 10.2119ZM82.3396 20.4263C82.3396 23.7927 79.8627 26.4295 76.7011 26.4295C73.5396 26.4295 71.0308 23.7927 71.0308 20.4263C71.0308 17.0599 73.5216 14.5204 76.7011 14.5204C79.8807 14.5204 82.3396 17.1149 82.3396 20.4263ZM134.693 10.2119C128.915 10.2119 124.213 14.7943 124.213 20.4276C124.213 26.0609 128.915 30.7393 134.693 30.7393C140.471 30.7393 145.14 26.1133 145.14 20.4276C145.14 14.7418 140.453 10.2119 134.693 10.2119ZM140.333 20.4263C140.333 23.7927 137.856 26.4295 134.694 26.4295C131.533 26.4295 129.024 23.7927 129.024 20.4263C129.024 17.0599 131.515 14.5204 134.694 14.5204C137.874 14.5204 140.333 17.1149 140.333 20.4263ZM194.505 10.2119C188.727 10.2119 184.025 14.7943 184.025 20.4276C184.025 26.0609 188.727 30.7393 194.505 30.7393C200.283 30.7393 204.952 26.1133 204.952 20.4276C204.952 14.7418 200.265 10.2119 194.505 10.2119ZM200.144 20.4263C200.144 23.7927 197.668 26.4295 194.506 26.4295C191.344 26.4295 188.836 23.7927 188.836 20.4263C188.836 17.0599 191.326 14.5204 194.506 14.5204C197.685 14.5204 200.144 17.1149 200.144 20.4263ZM64.714 25.1533C64.8266 25.2225 64.8932 25.3441 64.8932 25.4759V29.2007C64.8932 29.3773 64.7907 29.5361 64.6307 29.6077C64.3415 29.737 63.7859 29.9777 63.3124 30.1223C61.9927 30.5306 60.5168 30.738 58.9245 30.738C53.0826 30.738 48.6768 26.2042 48.6768 20.4583C48.6768 14.7124 53.2797 10.2106 59.1562 10.2106C61.3475 10.2106 63.0359 10.5805 64.6346 11.4087C64.7933 11.4919 64.8867 11.6609 64.8727 11.8413L64.5834 15.4893C64.5732 15.6212 64.4964 15.7364 64.3786 15.7965C64.2608 15.8567 64.1251 15.8529 64.0125 15.7863C62.6007 14.9466 61.0762 14.5204 59.4851 14.5204C56.0074 14.5204 53.482 16.9421 53.482 20.457C53.482 23.9719 55.9639 26.4282 59.5184 26.4282C60.9251 26.4282 62.122 26.1607 63.521 25.5322C63.6964 25.4541 64.065 25.2724 64.3428 25.1354C64.4618 25.0778 64.5988 25.0842 64.7114 25.1533H64.714ZM174.462 25.1533C174.575 25.2225 174.642 25.3441 174.642 25.4759V29.2007C174.642 29.3773 174.539 29.5361 174.379 29.6077C174.09 29.737 173.534 29.9777 173.061 30.1223C171.741 30.5306 170.265 30.738 168.673 30.738C162.831 30.738 158.425 26.2042 158.425 20.4583C158.425 14.7124 163.028 10.2106 168.905 10.2106C171.096 10.2106 172.784 10.5805 174.383 11.4087C174.542 11.4919 174.635 11.6609 174.621 11.8413L174.332 15.4893C174.322 15.6212 174.245 15.7364 174.127 15.7965C174.011 15.8567 173.874 15.8529 173.761 15.7863C172.349 14.9466 170.825 14.5204 169.234 14.5204C165.756 14.5204 163.23 16.9421 163.23 20.457C163.23 23.9719 165.712 26.4282 169.267 26.4282C170.674 26.4282 171.87 26.1607 173.269 25.5322C173.445 25.4541 173.813 25.2737 174.091 25.1354C174.21 25.0778 174.347 25.0842 174.46 25.1533H174.462ZM99.6874 10.2145C104.38 10.2145 107.181 13.5117 107.181 19.0362V29.9329C107.181 30.1057 107.041 30.2452 106.868 30.2452H102.788C102.615 30.2452 102.475 30.1057 102.475 29.9329V19.4996C102.475 16.3841 100.975 14.5229 98.4599 14.5229C95.7181 14.5229 94.081 16.4199 94.081 19.5969V29.9303C94.081 30.1031 93.9415 30.2426 93.7687 30.2426H89.6855C89.5127 30.2426 89.3732 30.1031 89.3732 29.9303V11.0221C89.3732 10.8493 89.5127 10.7098 89.6855 10.7098H93.601C93.7738 10.7098 93.9133 10.8493 93.9133 11.0221V12.6081C95.3162 11.0605 97.3578 10.2106 99.6861 10.2106V10.2132L99.6874 10.2145ZM121.335 20.9703C122.392 22.0711 122.905 23.3037 122.905 24.7373C122.905 26.5537 122.137 28.082 120.685 29.1546C119.282 30.1914 117.321 30.738 115.014 30.738C113.323 30.738 110.434 29.9687 109.871 29.8151C109.737 29.778 109.642 29.6538 109.642 29.5143V26.0109C109.642 25.9111 109.687 25.8189 109.767 25.7601C109.847 25.7012 109.947 25.6833 110.041 25.7114C110.803 25.9341 113.39 26.6625 114.715 26.6625C117.743 26.6625 118.132 25.6871 118.132 24.8385C118.132 23.7082 116.701 22.9697 115.044 22.1133C112.696 20.9012 109.774 19.3805 109.774 15.9834C109.774 12.5863 112.774 10.2132 117.07 10.2132C119.092 10.2132 120.65 10.5025 121.971 11.1207C122.089 11.1745 122.16 11.2986 122.15 11.4279L121.888 14.7469C121.879 14.8468 121.826 14.9338 121.742 14.9863C121.657 15.0388 121.554 15.049 121.46 15.0119C120.29 14.5447 118.849 14.2887 117.401 14.2887C115.54 14.2887 114.515 14.8749 114.515 15.8145C114.515 16.754 115.874 17.4849 117.45 18.3309C118.758 19.0349 120.239 19.8311 121.335 20.9703ZM177.712 10.7085H181.793C181.966 10.7085 182.105 10.8481 182.105 11.0209V29.929C182.105 30.1018 181.966 30.2413 181.793 30.2413H177.712C177.54 30.2413 177.4 30.1018 177.4 29.929V11.0209C177.4 10.8481 177.54 10.7085 177.712 10.7085ZM157.913 10.345C158.003 10.345 158.086 10.3809 158.145 10.4449C158.205 10.5089 158.236 10.5959 158.229 10.6829L157.924 14.6663C157.917 14.7508 157.876 14.8301 157.81 14.8839C157.743 14.9377 157.66 14.962 157.575 14.9517C157.212 14.9095 156.874 14.8865 156.569 14.8865C154.469 14.8865 152.224 16.0986 152.224 19.497V29.9303C152.224 30.1031 152.084 30.2426 151.911 30.2426H147.831C147.658 30.2426 147.518 30.1031 147.518 29.9303V11.0221C147.518 10.8493 147.658 10.7098 147.831 10.7098H151.746C151.919 10.7098 152.059 10.8493 152.059 11.0221V12.6913C153.452 11.1873 155.471 10.377 157.913 10.3463V10.345ZM35.7744 0.512059C36.0983 0.494139 36.362 0.769338 36.3364 1.09318L33.3104 38.9927C33.281 39.3613 32.8983 39.5917 32.5604 39.4445C30.8336 38.6881 29.0864 38.0097 27.4109 37.5322C27.1626 37.4618 26.9988 37.2289 27.0192 36.9716L29.3143 8.4519C29.3412 8.12422 29.0711 7.84774 28.7434 7.87078C22.6928 8.30086 17.3002 10.1223 12.8087 12.8692C12.6397 12.9729 12.4234 12.8692 12.4004 12.6721L12.2506 11.3831C12.2186 11.113 12.3095 10.8417 12.5015 10.6509C17.6663 5.4631 26.177 1.0535 35.7732 0.513339L35.7744 0.512059ZM7.58884 20.3085C7.55428 20.018 7.66307 19.7287 7.88196 19.5354C12.1764 15.7415 18.2026 12.6183 24.5757 11.4241C24.9264 11.3588 25.2452 11.6404 25.2157 11.9962L24.8906 16.0346C24.8765 16.2087 24.7396 16.3457 24.5668 16.3623C18.0221 16.9946 12.5066 19.1514 8.17892 22.002C8.00996 22.1121 7.78596 22.0084 7.76292 21.8087L7.58884 20.3098V20.3085ZM24.5373 20.4199L24.1316 25.4593C24.1162 25.6487 23.9562 25.7921 23.7655 25.7869C17.1466 25.6372 10.0682 27.538 4.6858 30.7009C4.51812 30.7994 4.30436 30.6945 4.2826 30.5012L4.07652 28.7322C4.04068 28.4327 4.15844 28.1319 4.3914 27.9399C9.52419 23.7146 17.2247 20.2829 23.9613 19.8375C24.2903 19.8157 24.5642 20.0897 24.5373 20.4186V20.4199ZM23.745 30.2017L23.2624 36.2049C23.2458 36.4097 23.0628 36.5556 22.8605 36.53C15.6836 35.6391 7.8154 36.7412 1.29636 39.8029C1.12996 39.881 0.935395 39.7748 0.913635 39.5905L0.678116 37.5629C0.639716 37.2391 0.780515 36.9191 1.04548 36.7297C6.98979 32.498 14.1693 29.5527 23.2151 29.6193C23.5261 29.6218 23.7693 29.8906 23.745 30.2004V30.2017Z" fill="#003058"/>
</svg>
